<mxfile host="app.diagrams.net" modified="2023-09-24T07:40:12.164Z" agent="Mozilla/5.0 (Windows NT 10.0; Win64; x64) AppleWebKit/537.36 (KHTML, like Gecko) Chrome/117.0.0.0 Safari/537.36 Edg/117.0.2045.36" version="21.8.1" etag="N4bj3qytqhTVIs8tNs-1" type="github">
  <diagram name="Page-1" id="lpxL9anXV0ZeIvqh2CNc">
    <mxGraphModel>
      <root>
        <mxCell id="0" />
        <mxCell id="1" parent="0" />
      </root>
    </mxGraphModel>
  </diagram>
</mxfile>
